<svg width="60" height="60" xmlns="http://www.w3.org/2000/svg">
  <g fill="none" fill-rule="evenodd">
    <path fill="#FFF" d="M0 59.94h60V0H0z"/>
    <path d="M34.5 45.5h-9c-6.075 0-11-4.925-11-11v-9c0-6.075 4.925-11 11-11h9c6.075 0 11 4.925 11 11v9c0 6.075-4.925 11-11 11zm-9-2c-4.962 0-9-4.037-9-9v-9c0-4.963 4.038-9 9-9h9c4.962 0 9 4.037 9 9v9c0 4.963-4.038 9-9 9h-9zm11-13.5a6.5 6.5 0 1 0-13 0 6.5 6.5 0 0 0 13 0zm-7-5l-1 1v3l-1 1 2-5zM26 28.5l1-1h3l1-1-5 2zm7 1.5l-1 1v3l-1 1 2-5zm-3.5 3.5l1-1h3l1-1-5 2zm-8.668.079c.68-.288 1.026-1.022.867-1.742a8.536 8.536 0 0 1 .69-5.627c.329-.66.171-1.456-.418-1.9-.76-.573-1.841-.295-2.265.558a11.543 11.543 0 0 0-.936 7.623c.206.929 1.186 1.46 2.062 1.088zm-.827-8.332l-.453-.056.453.056zm-.427 3.473l-.992-.122.992.122zm1.733-1.802l.732.09-.732-.09zm.319 4.573l-1.364-.167 1.364.167zm16.054 4.659c-.589-.445-1.398-.377-1.943.121a8.532 8.532 0 0 1-5.218 2.215c-.736.046-1.346.58-1.436 1.312-.116.945.665 1.742 1.615 1.683a11.544 11.544 0 0 0 7.07-3.001c.702-.642.671-1.757-.088-2.33zm-6.803 4.883l.178.42-.178-.42zm3.222-1.368l.39.921-.39-.921zm-2.427-.599l-.289-.679.289.679zm3.8-2.563l.537 1.265-.537-1.265zm-3.992-16.232c-.09.732.372 1.399 1.076 1.622a8.529 8.529 0 0 1 4.527 3.411c.408.615 1.176.875 1.855.587.876-.372 1.176-1.446.65-2.24a11.55 11.55 0 0 0-6.134-4.622c-.907-.286-1.857.297-1.974 1.242zm7.63 3.45l.275-.365-.275.365zm-2.795-2.107l.602-.798-.602.798zm.695 2.402l-.444.589.444-.589zm-4.121-2.01l.828-1.098-.828 1.098zM38.263 32a8.553 8.553 0 0 0 0-3.999V32zm1.801 1a10.555 10.555 0 0 0 0-6.003V33zM36.5 30h2-2zm-13.343 5.044a8.535 8.535 0 0 0 3.063 2.57l-3.063-2.57zm-1.924.738a10.544 10.544 0 0 0 4.598 3.857l-4.598-3.857zm4.589-.803l-1.286 1.532 1.286-1.532zM24.5 20.5a1 1 0 1 1-2 0 1 1 0 0 1 2 0z" stroke="#414042" stroke-linecap="round" stroke-linejoin="round"/>
  </g>
</svg>
